HIERARCHY
ROOT root
{
	OFFSET 0.000000 0.000000 0.000000
	CHANNELS 6 Xposition Yposition Zposition Zrotation Yrotation Xrotation
	JOINT lhip
	{
		OFFSET 0.058581 -0.082280 -0.017664
		CHANNELS 3 Zrotation Yrotation Xrotation
		JOINT lknee
		{
			OFFSET 0.043451 -0.386469 0.008037
			CHANNELS 3 Zrotation Yrotation Xrotation
			JOINT lankle
			{
				OFFSET -0.014790 -0.426874 -0.037428
				CHANNELS 3 Zrotation Yrotation Xrotation
				JOINT ltoe
				{
					OFFSET 0.041054 -0.060286 0.122042
					CHANNELS 3 Zrotation Yrotation Xrotation
					End Site
					{
						OFFSET 0.000000 0.000000 0.000000
					}
				}
			}
		}
	}
	JOINT rhip
	{
		OFFSET -0.060310 -0.090513 -0.013543
		CHANNELS 3 Zrotation Yrotation Xrotation
		JOINT rknee
		{
			OFFSET -0.043257 -0.383688 -0.004843
			CHANNELS 3 Zrotation Yrotation Xrotation
			JOINT rankle
			{
				OFFSET 0.019056 -0.420046 -0.034562
				CHANNELS 3 Zrotation Yrotation Xrotation
				JOINT rtoe
				{
					OFFSET -0.034840 -0.062106 0.130323
					CHANNELS 3 Zrotation Yrotation Xrotation
					End Site
					{
						OFFSET 0.000000 0.000000 0.000000
					}
				}
			}
		}
	}
	JOINT lowerback
	{
		OFFSET 0.004439 0.124404 -0.038385
		CHANNELS 3 Zrotation Yrotation Xrotation
		JOINT upperback
		{
			OFFSET 0.004488 0.137956 0.026820
			CHANNELS 3 Zrotation Yrotation Xrotation
			JOINT chest
			{
				OFFSET -0.002265 0.056032 0.002855
				CHANNELS 3 Zrotation Yrotation Xrotation
				JOINT lowerneck
				{
					OFFSET -0.013390 0.211636 -0.033468
					CHANNELS 3 Zrotation Yrotation Xrotation
					JOINT upperneck
					{
						OFFSET 0.010113 0.088937 0.050410
						CHANNELS 3 Zrotation Yrotation Xrotation
						End Site
						{
							OFFSET 0.000000 0.000000 0.000000
						}
					}
				}
				JOINT lclavicle
				{
					OFFSET 0.071702 0.114000 -0.018898
					CHANNELS 3 Zrotation Yrotation Xrotation
					JOINT lshoulder
					{
						OFFSET 0.122921 0.045205 -0.019046
						CHANNELS 3 Zrotation Yrotation Xrotation
						JOINT lelbow
						{
							OFFSET 0.255332 -0.015649 -0.022946
							CHANNELS 3 Zrotation Yrotation Xrotation
							JOINT lwrist
							{
								OFFSET 0.265709 0.012698 -0.007375
								CHANNELS 3 Zrotation Yrotation Xrotation
								End Site
								{
									OFFSET 0.000000 0.000000 0.000000
								}
							}
						}
					}
				}
				JOINT rclavicle
				{
					OFFSET -0.082954 0.112472 -0.023707
					CHANNELS 3 Zrotation Yrotation Xrotation
					JOINT rshoulder
					{
						OFFSET -0.113228 0.046853 -0.008472
						CHANNELS 3 Zrotation Yrotation Xrotation
						JOINT relbow
						{
							OFFSET -0.260127 -0.014369 -0.031269
							CHANNELS 3 Zrotation Yrotation Xrotation
							JOINT rwrist
							{
								OFFSET -0.269108 0.006794 -0.006027
								CHANNELS 3 Zrotation Yrotation Xrotation
								End Site
								{
									OFFSET 0.000000 0.000000 0.000000
								}
							}
						}
					}
				}
			}
		}
	}
}
MOTION
Frames: 13
Frame Time: 0.033333
-0.294203 0.169966 0.982965 96.569907 0.625391 89.482455 3.098155 -2.249970 -8.117305 -3.818924 -1.110629 18.983922 3.794516 5.657147 -12.071545 0.000000 -0.000000 0.000000 4.264159 -2.270197 -5.394964 -0.337144 -5.902570 14.072322 -0.277750 -4.344453 -14.539107 0.000000 -0.000000 0.000000 0.153577 1.531938 1.015910 3.596072 -3.031306 3.273299 0.312642 -2.230347 -0.301870 -0.274641 11.313830 0.690831 -3.187266 6.280255 7.157005 -18.038335 3.237724 0.686495 -61.604307 -8.314992 22.683404 -53.939157 -75.409008 81.578843 -10.101683 -4.458498 -20.147090 14.094426 -2.000906 -1.388710 59.761490 2.897457 26.444555 50.126809 83.185859 70.744864 19.299286 14.407407 -37.986140 
-0.295411 0.172921 0.983075 96.902712 0.565107 89.350751 2.806623 -2.471798 -7.965743 -3.939491 -1.487263 18.822784 4.029362 5.873603 -11.927205 0.000000 -0.000000 0.000000 3.915242 -2.424682 -5.307873 -0.087088 -5.651887 14.091711 0.133378 -4.922700 -14.518094 0.000000 -0.000000 0.000000 0.254791 1.385725 1.180499 3.284776 -2.697643 3.128119 0.307073 -2.267897 0.159461 -0.342563 11.524697 1.511134 -3.451283 6.776378 8.686061 -17.704841 3.116445 0.832878 -61.897678 -8.428090 22.519280 -52.011773 -76.093936 79.314555 -10.790369 -4.866431 -20.760702 13.792248 -1.957925 -1.325402 60.106790 3.380747 26.810093 47.865737 83.507435 68.186094 19.808630 14.497814 -37.953058 
-0.296215 0.176157 0.983617 97.367216 0.502336 89.184169 2.459754 -2.679929 -7.815798 -3.845293 -1.576252 18.747335 3.869654 5.832157 -11.999056 0.000000 -0.000000 0.000000 3.594795 -2.775752 -5.230449 -0.153199 -5.942233 14.232183 0.300787 -4.784509 -14.534870 0.000000 -0.000000 0.000000 0.405232 1.323351 1.566128 3.108634 -2.768954 2.809947 0.112123 -2.124007 0.286739 -0.361032 11.762422 3.049385 -3.525204 7.136900 9.823959 -17.554173 3.501588 0.906387 -61.995397 -8.762430 22.360223 -50.255888 -76.101205 76.930921 -11.516703 -5.172450 -21.603056 13.678059 -2.112321 -1.393292 60.312355 3.515918 26.974337 46.145236 83.425981 65.893998 20.634095 15.220004 -38.935961 
-0.296986 0.179527 0.983424 97.313867 0.593915 89.158439 2.416143 -2.542633 -7.694714 -3.965201 -1.564558 18.509851 3.912110 5.808013 -12.164981 0.000000 -0.000000 0.000000 3.536919 -2.752763 -5.333411 -0.307972 -5.924452 14.379198 0.298687 -4.726915 -14.490424 0.000000 -0.000000 0.000000 0.416248 1.500871 1.445100 3.086132 -2.510111 2.984976 0.032373 -2.042463 0.429477 -0.436324 12.124795 5.257975 -3.736644 7.545479 11.237564 -17.405424 3.689263 0.951125 -62.104050 -9.082557 22.258106 -48.184680 -76.063524 74.737844 -11.566677 -5.177237 -21.797304 13.557806 -2.271298 -1.222931 60.352079 3.940002 26.967849 46.349576 83.345656 65.875949 20.557049 15.625921 -39.550396 
-0.297875 0.182019 0.983561 97.539156 0.567586 89.149046 2.239146 -2.679754 -7.655008 -4.023979 -1.754690 18.359692 3.876380 5.751381 -12.493762 0.000000 -0.000000 0.000000 3.303847 -2.875754 -5.378052 -0.246828 -5.994138 14.395253 0.337522 -4.773555 -14.506601 0.000000 -0.000000 0.000000 0.455040 1.438670 1.576828 3.028470 -2.553980 2.752802 -0.091550 -1.980944 0.655884 -0.411909 12.320512 6.638093 -3.937881 7.911297 12.337317 -17.285164 3.837570 1.056145 -62.153002 -9.327892 22.245806 -47.004546 -76.082879 73.408434 -11.268778 -5.241637 -22.029004 13.511458 -2.328362 -1.141809 60.473627 4.235367 27.069196 45.083066 83.259631 64.545758 20.563928 15.868171 -39.406383 
-0.298600 0.184594 0.983160 97.167329 0.626286 89.244868 2.308070 -2.457761 -7.479037 -4.239084 -1.590846 17.816659 3.845282 5.886515 -12.405821 0.000000 -0.000000 0.000000 3.287191 -2.506023 -5.704326 -0.411683 -5.917098 14.710433 0.399669 -4.887425 -14.641432 0.000000 -0.000000 0.000000 0.197762 1.721905 1.226673 3.116808 -2.227277 3.177747 -0.029269 -1.865492 0.791535 -0.325869 12.613566 8.708918 -4.048472 8.104987 13.560038 -17.098560 3.781824 1.260050 -62.308189 -9.638490 22.207457 -46.271895 -76.250289 72.499331 -11.027036 -4.860171 -21.842628 13.472738 -2.393344 -0.930856 60.514371 4.561859 27.042656 45.505193 83.470816 65.223104 20.601289 15.622251 -39.105727 
-0.299970 0.188280 0.983222 97.410359 0.583023 89.247136 2.036229 -2.470184 -7.496799 -4.317517 -1.881309 17.736710 3.867755 5.846533 -12.771166 0.000000 -0.000000 0.000000 2.989624 -2.593532 -5.915072 -0.428511 -5.989603 15.017172 0.661578 -4.971309 -14.713456 0.000000 -0.000000 0.000000 0.155384 1.675437 1.531530 3.041562 -2.240518 2.989928 -0.144357 -1.861829 0.968137 -0.263869 13.040474 10.459551 -4.028608 8.503863 15.084577 -16.917671 3.784634 1.359534 -62.367732 -9.736523 22.246614 -45.956870 -76.335760 72.561944 -10.374203 -4.813793 -21.675340 13.370925 -2.438379 -0.720682 60.699157 4.780783 27.057751 45.651214 83.448361 65.596814 20.427801 15.590817 -38.992608 
-0.301341 0.191680 0.983008 97.405910 0.619256 89.220167 1.930854 -2.328681 -7.412413 -4.367340 -1.866560 17.506720 3.760260 5.719720 -13.020641 0.000000 -0.000000 0.000000 2.830258 -2.544790 -6.134374 -0.526199 -6.101658 15.353648 0.614829 -5.041673 -14.700538 0.000000 -0.000000 0.000000 0.036514 1.844347 1.581977 3.060282 -2.133807 3.374053 -0.201807 -1.812856 1.153356 -0.197324 13.293727 12.160376 -4.051937 8.572508 16.029803 -16.713886 3.580056 1.504068 -62.510370 -10.173637 22.269523 -45.013671 -76.187156 71.648456 -9.954959 -4.734959 -21.785044 13.289488 -2.399713 -0.525283 60.914935 5.040336 27.021644 44.945561 83.622014 65.054932 19.948619 15.481495 -38.686568 
-0.303203 0.195657 0.982844 97.717157 0.587080 89.258164 1.675546 -2.324382 -7.499600 -4.435297 -2.082899 17.398074 3.759711 5.659276 -12.991737 0.000000 -0.000000 0.000000 2.575656 -2.765827 -6.591918 -0.675806 -6.173150 15.987087 0.833983 -5.075482 -14.868830 0.000000 -0.000000 0.000000 -0.025351 1.763316 2.090681 2.932440 -2.251843 3.181394 -0.344188 -1.785391 1.401438 -0.033871 13.522999 13.536192 -4.010730 8.758390 16.929724 -16.627059 3.571573 1.487168 -62.321348 -10.327737 22.317296 -45.605693 -76.053315 72.057432 -9.505723 -4.614753 -21.768197 13.238943 -2.430077 -0.413965 61.042655 5.273967 27.110189 45.960957 83.602518 66.107290 19.271164 15.352871 -38.571142 
-0.305842 0.200504 0.982460 97.978816 0.572513 89.403260 1.421101 -2.454881 -7.725580 -4.519388 -2.185653 17.235621 3.945435 5.631185 -12.961063 0.000000 -0.000000 0.000000 2.242525 -2.642101 -7.412198 -0.780164 -6.361647 17.035833 1.117945 -5.301983 -15.152606 0.000000 -0.000000 0.000000 -0.320599 1.780954 2.523201 2.900470 -2.291302 3.319125 -0.395842 -1.759254 1.687696 0.094415 13.710827 14.848277 -3.927650 8.888414 17.446948 -16.531276 3.274161 1.627312 -62.199508 -10.572851 22.392553 -45.332298 -76.022810 71.417979 -9.042194 -4.401762 -21.844881 13.239132 -2.411379 -0.354663 61.269634 5.406410 27.071156 44.198235 83.872680 64.503295 19.544845 15.035427 -37.676566 
-0.307937 0.204619 0.981869 98.256115 0.563026 89.457608 1.213829 -2.620529 -7.864743 -4.631021 -2.357731 17.221161 3.958869 5.638758 -13.459485 0.000000 -0.000000 0.000000 1.949511 -2.626147 -8.138646 -0.894446 -6.544898 18.161319 1.330416 -5.534356 -15.546075 0.000000 -0.000000 0.000000 -0.543213 1.841749 2.899205 2.874035 -2.320828 3.552348 -0.456175 -1.867050 2.008682 0.283417 13.842684 15.425607 -3.898811 8.739400 17.811785 -16.463373 3.059286 1.572232 -62.130349 -10.811129 22.551463 -44.792207 -75.882619 70.524012 -8.843743 -4.146079 -21.883157 13.204611 -2.401015 -0.548394 61.412177 5.486135 27.178543 42.654739 83.991941 62.898685 19.632059 14.990095 -37.556576 
-0.309465 0.209153 0.981297 98.534407 0.466146 89.350598 0.898908 -2.444138 -7.824515 -4.746287 -2.612208 17.231601 3.875703 5.462958 -13.888042 0.000000 -0.000000 0.000000 1.529162 -2.767244 -8.765227 -1.052490 -6.863037 19.508141 1.642613 -5.581220 -15.893717 0.000000 -0.000000 0.000000 -0.778772 1.744740 3.830334 2.719805 -2.421416 3.375886 -0.513755 -1.746177 1.942483 0.265997 14.002619 16.379890 -3.429776 8.596604 18.040853 -16.233972 2.904349 1.862007 -62.194096 -10.775903 22.370545 -44.888913 -75.742771 70.777421 -8.950800 -4.249447 -21.803300 13.149460 -2.235383 -0.243200 61.560649 5.445637 26.862008 42.292288 83.950836 62.683766 20.059687 15.359749 -37.161799 
-0.311194 0.213834 0.980530 98.904282 0.409857 89.252879 0.582913 -2.501252 -7.880843 -4.892641 -2.920361 17.395574 3.999241 5.370638 -14.274853 0.000000 -0.000000 0.000000 1.120603 -2.860832 -9.684146 -1.214316 -7.095882 21.375712 1.887830 -5.762681 -16.351201 0.000000 -0.000000 0.000000 -0.975176 1.753559 4.373783 2.682892 -2.469492 3.663285 -0.561787 -1.829107 2.312951 0.386225 13.929131 16.781061 -3.620363 8.495457 18.107153 -16.310510 2.558545 1.752970 -61.989494 -10.878907 22.456498 -44.361470 -75.621702 69.948616 -8.564059 -3.624567 -21.717031 13.184813 -2.015223 -0.423043 61.519707 5.447087 26.898727 40.574910 84.262235 60.758278 20.325753 14.859468 -36.769949 
